<?xml version="1.0" encoding="UTF-8"?><svg xmlns="http://www.w3.org/2000/svg" xmlns:xlink="http://www.w3.org/1999/xlink" viewBox="0 0 274.88 274.88"><defs><mask id="mask" x="6.43" y="35.95" width="262.02" height="179.18" maskUnits="userSpaceOnUse"><path class="cls-7" d="m255.55,167.69c-.05-.09-.13-.16-.18-.25-1.54-2.29-4.67-3.32-7.16-4.05-.05-.01-.09-.02-.14-.04-6.31-1.83-13.04-2.37-19.55-2.89-12.48-.98-25.03-1.24-37.55-1.38-5.96-.07-11.92-.08-17.88-.08-.14-.46-.27-.94-.4-1.48-.34-1.44-.63-3.15-.87-5.13-.24-1.99-.36-4.14-.36-6.47,0-3.42.29-7.01.87-10.78.58-3.76,1.66-7.49,3.23-11.19.21.14.38.22.51.26.14.04.27.09.41.15.14.07.27.1.41.1,1.3-.21,2.33-.62,3.08-1.23.75-.62,1.33-1.32,1.74-2.1.41-.79.68-1.61.82-2.46.14-.85.2-1.59.2-2.21,0-.21-.02-.41-.05-.62-.04-.21-.05-.38-.05-.51v-.51c-6.02-2.19-11.19-3.75-15.5-4.67-4.31-.92-7.97-1.39-10.98-1.39-2.81,0-5.08.33-6.83.98-1.74.65-3.11,1.52-4.11,2.62-.99,1.09-1.68,2.31-2.05,3.64-.38,1.33-.56,2.65-.56,3.95,0,2.05.12,3.69.36,4.93.24,1.23.51,2.21.82,2.93.31.72.62,1.2.92,1.44.31.24.53.36.67.36.27,0,.62-.07,1.03-.21.21-.07.38-.17.51-.31.27-1.64.79-2.99,1.54-4.05.75-1.06,1.69-1.92,2.82-2.57,1.13-.65,2.38-1.11,3.75-1.39,1.37-.27,2.8-.41,4.31-.41s2.87.1,4.31.31c-.75,1.57-1.54,3.37-2.36,5.39-.82,2.02-1.61,4.19-2.36,6.52-.75,1.03-1.73,2.05-2.93,3.08-1.2,1.03-2.6,1.99-4.21,2.87-1.61.89-3.42,1.61-5.44,2.16-2.02.55-4.19.82-6.52.82-3.15,0-5.7-1.06-7.65-3.18-1.95-2.12-2.93-5.23-2.93-9.34s1.09-8.76,3.28-14.37c2.19-5.61,5.81-12.01,10.88-19.19,3.22-4.58,6-7.8,8.37-9.65,2.36-1.85,4.26-2.77,5.7-2.77,1.09,0,1.91.41,2.46,1.23.55.82.82,1.88.82,3.18,0,1.92-.63,4.07-1.9,6.47-1.27,2.4-3.23,4.48-5.9,6.26-.34.21-.65.41-.92.62-.62.48-.92.96-.92,1.44,0,.62.44,1.2,1.33,1.75.82.48,1.74.86,2.77,1.13.89.27,1.9.51,3.03.72,1.13.21,2.31.31,3.54.31,1.3,0,2.7-.22,4.21-.67,1.5-.44,2.89-1.27,4.16-2.46,1.26-1.2,2.31-2.86,3.13-4.98.82-2.12,1.23-4.82,1.23-8.11,0-2.46-.46-4.67-1.38-6.62-.92-1.95-2.21-3.59-3.85-4.93s-3.58-2.34-5.8-3.03c-2.22-.68-4.6-1.03-7.13-1.03-2.87,0-5.9.48-9.08,1.44-3.18.96-6.3,2.43-9.34,4.41-3.05,1.99-5.97,4.52-8.78,7.59-2.81,3.08-5.27,6.74-7.39,10.98-3.7,7.25-6.36,13.91-8.01,19.96-1.64,6.06-2.46,11.48-2.46,16.27,0,4.38.6,8.09,1.8,11.14,1.2,3.04,2.8,5.52,4.82,7.44,2.02,1.92,4.36,3.32,7.03,4.21,1.83.61,3.73,1,5.69,1.19-16.82-.4-33.64-.69-50.46-.66-12.52.02-25.06.16-37.56,1.02-6.52.45-13.25.94-19.58,2.7-.05.01-.09.02-.14.04-2.5.71-5.63,1.71-7.2,3.98-.06.09-.13.16-.19.25-4.57,7.53,2.62,19.25,6.79,25.4,2.79,4.1,8.46,12.07,14.45,9.56,4.08-1.71,8.08-3.68,12.37-4.61,15.58-3.36,30.8-7.03,46.69-8.77,10.29-1.13,20.63-1.72,30.98-1.91,1.31-.02,2.62-.04,3.93-.05,1.57-.01,3.14-.01,4.71,0,1.57,0,3.14.03,4.71.05,1.31.02,2.62.05,3.94.08,10.34.28,20.68.97,30.96,2.2,15.87,1.89,31.06,5.71,46.61,9.22,4.28.97,8.26,2.98,12.32,4.72,5.96,2.56,11.71-5.34,14.54-9.42,4.23-6.11,11.53-17.77,7.03-25.34Zm-119.97-8.35c-.22,0-.43,0-.65-.01,3.3-.19,6.58-1,9.84-2.41,3.76-1.64,7.39-4.07,10.88-7.29,0,2.26.24,4.38.72,6.36.27,1.11.67,2.14,1.18,3.09-7.32.06-14.64.15-21.97.26Z"/></mask><linearGradient id="linear-gradient" x1="-10.17" y1="100.84" x2="245.49" y2="100.84" gradientTransform="translate(19.78 24.7)" gradientUnits="userSpaceOnUse"><stop offset="0" stop-color="#6ac8ea"/><stop offset="1" stop-color="#16498a"/></linearGradient></defs><g class="cls-14"><g id="Layer_1"><g class="cls-11"><circle class="cls-5" cx="217.99" cy="153.32" r="2.89"/><path class="cls-7" d="m215.81,153.16c-.13-1.11,1.09-2.11,2.15-1.76-1.04.1-1.84.76-2.15,1.76h0Z"/></g><g class="cls-11"><circle class="cls-5" cx="226.78" cy="148.63" r="1.8"/><path class="cls-7" d="m226.47,147.3c.63-.28,1.46.27,1.45.96-.25-.61-.79-.97-1.45-.96h0Z"/></g><g class="cls-12"><rect class="cls-2" x="9.61" y="40.84" width="255.66" height="169.42" transform="translate(4.96 -5.22) rotate(2.22)"/></g><circle class="cls-5" cx="242.74" cy="182.33" r="3.84"/><path class="cls-7" d="m242.08,179.49c1.33-.62,3.13.56,3.09,2.03-.55-1.29-1.68-2.04-3.09-2.03h0Z"/><polygon class="cls-7" points="63.95 150.18 66.35 150.28 67.01 147.97 66.92 150.37 69.23 151.03 66.83 150.93 66.17 153.24 66.26 150.84 63.95 150.18"/><polygon class="cls-7" points="202.34 156.15 203.91 157.06 205.16 155.75 204.26 157.32 205.57 158.57 204 157.66 202.74 158.97 203.65 157.4 202.34 156.15"/><g class="cls-11"><circle class="cls-5" cx="22.48" cy="171.32" r="5.63"/><path class="cls-7" d="m18.21,171c-.29-2.14,2.15-4.14,4.2-3.43-1.98.17-3.64,1.53-4.2,3.43h0Z"/></g><path class="cls-7" d="m127.08,213.52c-.13-1.11,1.09-2.11,2.15-1.76-1.04.1-1.84.76-2.15,1.76h0Z"/><circle class="cls-5" cx="251.47" cy="181.53" r="1.8"/><circle class="cls-5" cx="18.21" cy="181.53" r="1.8"/><path class="cls-7" d="m137.75,207.66c.63-.28,1.46.27,1.45.96-.25-.61-.79-.97-1.45-.96h0Z"/><path class="cls-8" d="m218.71,104.14c0-.07.03-.24.1-.51,0-.14.02-.34.05-.62.03-.27.05-.58.05-.92,0-.62-.07-1.26-.2-1.95-.14-.68-.41-1.32-.81-1.9-.41-.58-.97-1.08-1.68-1.49-.71-.41-1.64-.62-2.8-.62-1.76,0-3.09.53-3.97,1.59-.88,1.06-1.32,2.45-1.32,4.16s.44,3.56,1.33,5.54c.89,1.99,2.22,3.94,4,5.85,1.37,1.44,2.94,3.2,4.72,5.29,1.78,2.09,3.45,4.38,5.03,6.88,1.57,2.5,2.91,5.1,4,7.8,1.09,2.7,1.64,5.39,1.64,8.06,0,3.01-.81,5.7-2.42,8.06-1.61,2.36-3.77,4.4-6.48,6.11-2.71,1.71-5.81,3.01-9.31,3.9-3.5.89-7.09,1.33-10.79,1.33-3.98,0-7.85-.56-11.62-1.69-3.77-1.13-7.1-2.93-9.97-5.39-3.09-2.6-5.3-5.35-6.63-8.26-1.34-2.91-2.01-5.76-2.01-8.57,0-2.26.34-4.31,1.03-6.16.68-1.85,1.61-3.42,2.77-4.72,1.16-1.3,2.5-2.31,4-3.03,1.5-.72,3.11-1.08,4.82-1.08s3.2.29,4.67.87c1.47.58,2.75,1.28,3.85,2.1,1.09.82,1.97,1.69,2.62,2.62.65.92.97,1.76.97,2.51v.31c-.82.82-1.54,1.64-2.15,2.46-.55.75-1.03,1.56-1.44,2.41-.41.86-.62,1.76-.62,2.72,0,1.44.67,2.62,2.01,3.54,1.34.92,3.26,1.39,5.74,1.39.9,0,1.79-.1,2.69-.31.89-.21,1.69-.51,2.38-.92.69-.41,1.26-.97,1.7-1.69.45-.72.67-1.59.67-2.62,0-1.23-.34-2.72-1.03-4.46-.69-1.75-1.55-3.64-2.59-5.7-1.03-2.05-2.17-4.21-3.41-6.47-1.24-2.26-2.38-4.53-3.41-6.83-1.03-2.29-1.9-4.53-2.59-6.72-.69-2.19-1.03-4.21-1.03-6.06,0-2.74.62-5.37,1.85-7.9,1.23-2.53,3.03-4.77,5.39-6.72,2.36-1.95,5.22-3.51,8.57-4.67,3.35-1.16,7.18-1.75,11.5-1.75,2.46,0,4.7.5,6.72,1.49,2.02.99,3.75,2.26,5.18,3.8,1.44,1.54,2.55,3.25,3.34,5.13.79,1.88,1.18,3.71,1.18,5.49,0,2.46-.8,4.58-2.41,6.36-1.61,1.78-4.26,2.67-7.95,2.67-1.85,0-3.83-.24-5.95-.72Z"/><path class="cls-6" d="m93.64,84.32c3.9.82,7.49,2.31,10.78,4.46,3.28,2.16,6.09,4.74,8.42,7.75,2.33,3.01,4.14,6.36,5.44,10.06,1.3,3.69,1.95,7.46,1.95,11.29s-.65,7.34-1.95,10.93c-1.3,3.59-3.35,6.93-6.16,10.01-3.63,3.97-7.68,7.2-12.16,9.7-4.48,2.5-9.02,4.46-13.6,5.9-4.59,1.44-9.05,2.45-13.39,3.03-4.35.58-8.16.94-11.44,1.08-2.4,1.09-4.45,1.64-6.16,1.64-1.57,0-2.91-.38-4-1.13-1.1-.75-1.97-1.78-2.62-3.08-.65-1.3-1.11-2.79-1.39-4.46-.27-1.68-.41-3.44-.41-5.29,0-3.15.31-6.16.92-9.03.68-3.35,1.74-6.93,3.18-10.73,1.44-3.8,2.94-7.34,4.52-10.62,1.78-3.76,3.69-7.49,5.75-11.19,1.85-.55,3.51-.92,4.98-1.13,1.47-.21,2.75-.31,3.85-.31,1.78,0,3.06.26,3.85.77.79.51,1.18,1.15,1.18,1.9,0,.34-.33,1.23-.97,2.67-.65,1.44-1.33,2.94-2.05,4.52-.72,1.57-1.32,2.99-1.8,4.26-.48,1.27-.58,1.9-.31,1.9-1.78,4.99-3.08,9.27-3.9,12.83-.82,3.56-1.3,6.6-1.44,9.13,1.44-.21,3.35-.6,5.75-1.18,2.39-.58,4.94-1.37,7.65-2.36,2.7-.99,5.42-2.24,8.16-3.75,2.74-1.5,5.22-3.28,7.44-5.34,2.22-2.05,4.04-4.38,5.44-6.98,1.4-2.6,2.1-5.51,2.1-8.72,0-2.26-.39-4.4-1.18-6.42-.79-2.02-1.97-3.81-3.54-5.39-1.57-1.57-3.54-2.82-5.9-3.75-2.36-.92-5.08-1.39-8.16-1.39h-1.39c-.45,0-.91.04-1.39.1-6.43.62-12.09,1.81-16.99,3.59-4.89,1.78-9.05,3.66-12.47,5.65-3.97,2.26-7.39,4.76-10.26,7.49.27.48.41.99.41,1.54,0,.48-.09.87-.26,1.18-.17.31-.36.6-.56.87l-.82.82c-4.38-3.69-7.53-7.01-9.44-9.96-1.92-2.94-2.87-5.61-2.87-8.01,0-3.08,1.42-5.68,4.26-7.8,2.84-2.12,6.48-3.83,10.93-5.13,4.45-1.3,9.39-2.22,14.83-2.77,5.44-.55,10.79-.82,16.06-.82,4.17,0,8.09.14,11.75.41,3.66.27,6.79.68,9.39,1.23Z"/><g class="cls-13"><polygon class="cls-7" points="32.9 94.55 34.29 96.92 36.93 96.14 34.55 97.53 35.33 100.16 33.95 97.79 31.31 98.57 33.68 97.18 32.9 94.55"/></g><g class="cls-13"><polygon class="cls-7" points="54.9 147.12 56.64 147.94 57.84 146.45 57.02 148.18 58.51 149.38 56.78 148.57 55.58 150.06 56.39 148.33 54.9 147.12"/></g><g class="cls-13"><polygon class="cls-7" points="22.09 180.55 23.83 181.37 25.03 179.88 24.22 181.61 25.71 182.81 23.97 182 22.77 183.49 23.58 181.76 22.09 180.55"/></g><circle class="cls-6" cx="233" cy="79.1" r="2.62"/><path class="cls-7" d="m233.67,80.39c-.58.64-1.86.23-1.97-.63.58.55,1.18.74,1.97.63h0Z"/><polygon class="cls-6" points="227.22 98.26 227.03 100.01 228.68 100.61 226.94 100.42 226.33 102.06 226.53 100.32 224.88 99.72 226.62 99.91 227.22 98.26"/><circle class="cls-1" cx="234.45" cy="89.91" r="6.66"/><circle class="cls-6" cx="234.45" cy="89.91" r="5.54"/><path class="cls-7" d="m235.63,85.87c2.12.16,3.55,2.91,2.45,4.74.24-1.94-.73-3.81-2.45-4.74h0Z"/><circle class="cls-1" cx="46.5" cy="145.41" r="6.9"/><circle class="cls-6" cx="46.5" cy="145.41" r="5.74"/><path class="cls-7" d="m42.62,147.4c-1.39-1.71-.33-4.75,1.83-5.22-1.63,1.2-2.35,3.26-1.83,5.22h0Z"/><g class="cls-11"><circle class="cls-4" cx="224.97" cy="85.6" r="1.4"/><path class="cls-7" d="m224.73,84.56c.49-.22,1.14.21,1.13.74-.19-.47-.62-.75-1.13-.74h0Z"/></g><text class="cls-9" transform="translate(37.11 190.5) rotate(-13.94)"><tspan x="0" y="0">C</tspan></text><text class="cls-9" transform="translate(50.92 187.18) rotate(-11.48)"><tspan x="0" y="0">L</tspan></text><text class="cls-9" transform="translate(60.83 185.22) rotate(-9.48)"><tspan x="0" y="0">E</tspan></text><text class="cls-9" transform="translate(71.2 183.51) rotate(-7.36)"><tspan x="0" y="0">A</tspan></text><text class="cls-9" transform="translate(84.22 181.88) rotate(-5.13)"><tspan x="0" y="0">N</tspan></text><text class="cls-9" transform="translate(98.5 180.7) rotate(-3.62)"><tspan x="0" y="0">I</tspan></text><text class="cls-9" transform="translate(104.04 180.33) rotate(-2.21)"><tspan x="0" y="0">N</tspan></text><text class="cls-9" transform="translate(118.33 179.83) rotate(-.3)"><tspan x="0" y="0">G</tspan></text><text class="cls-9" transform="translate(132.76 179.83) rotate(1.04)"><tspan x="0" y="0"> </tspan></text><text class="cls-9" transform="translate(139.78 179.96) rotate(2.22)"><tspan x="0" y="0">S</tspan></text><text class="cls-9" transform="translate(152.67 180.5) rotate(3.54)"><tspan x="0" y="0">E</tspan></text><text class="cls-9" transform="translate(163.23 181.17) rotate(4.82)"><tspan x="0" y="0">R</tspan></text><text class="cls-9" transform="translate(176.68 182.34) rotate(6.17)"><tspan x="0" y="0">V</tspan></text><text class="cls-9" transform="translate(189.8 183.82) rotate(7.08)"><tspan x="0" y="0">I</tspan></text><text class="cls-9" transform="translate(195.37 184.5) rotate(8)"><tspan x="0" y="0">C</tspan></text><text class="cls-9" transform="translate(209.49 186.53) rotate(9.1)"><tspan x="0" y="0">E</tspan></text><text class="cls-9" transform="translate(219.93 188.21) rotate(10.1)"><tspan x="0" y="0">S</tspan></text><polygon class="cls-6" points="249.09 171.24 248.76 174.15 251.52 175.16 248.6 174.84 247.6 177.59 247.92 174.68 245.16 173.67 248.08 173.99 249.09 171.24"/><g class="cls-11"><circle class="cls-5" cx="54.48" cy="154.83" r="2.23"/><path class="cls-7" d="m54.09,153.18c.77-.36,1.82.33,1.79,1.18-.32-.74-.98-1.19-1.79-1.18h0Z"/></g><g class="cls-10"><circle class="cls-3" cx="31.31" cy="101.55" r="1.78"/><path class="cls-7" d="m29.96,101.45c-.08-.67.68-1.3,1.33-1.09-.65.06-1.14.46-1.33,1.09h0Z"/></g><path class="cls-7" d="m29.96,101.45c-.08-.67.68-1.3,1.33-1.09-.65.06-1.14.46-1.33,1.09h0Z"/><g class="cls-10"><circle class="cls-3" cx="30.36" cy="97.19" r=".83"/><path class="cls-7" d="m29.73,97.14c-.04-.32.32-.61.62-.51-.3.02-.54.22-.62.51,0,0,.08-.29,0,0Z"/></g><path class="cls-7" d="m29.73,97.14c-.04-.32.32-.61.62-.51-.3.02-.54.22-.62.51,0,0,.08-.29,0,0Z"/></g></g></svg>